<?xml version="1.0" encoding="UTF-8" standalone="no"?>
<svg width="720px" height="720px" viewBox="0 0 720 720" version="1.1" xmlns="http://www.w3.org/2000/svg" xmlns:xlink="http://www.w3.org/1999/xlink">
    <!-- Generator: Sketch 43.2 (39069) - http://www.bohemiancoding.com/sketch -->
    <title>icon</title>
    <desc>Created with Sketch.</desc>
    <defs>
        <linearGradient x1="50%" y1="-3.85954484%" x2="50%" y2="108.245584%" id="linearGradient-1">
            <stop stop-color="#3023AE" offset="0%"></stop>
            <stop stop-color="#C96DD8" offset="100%"></stop>
        </linearGradient>
    </defs>
    <g id="Page-1" stroke="none" stroke-width="1" fill="none" fill-rule="evenodd">
        <g id="icon">
            <circle id="Oval" fill="url(#linearGradient-1)" cx="360" cy="360" r="360"></circle>
            <path d="M445.363724,266.286394 L274.336392,266.286394 L359.334633,352.315484 L445.363724,266.286394 Z M266.295765,453.713606 L453.722978,453.713606 C464.06896,453.713606 472.446956,445.316867 472.446956,434.970885 L472.446956,292.207577 L372.585737,392.068796 C369.080848,395.573685 364.320197,397.560413 359.334633,397.560413 C354.367812,397.560413 349.607161,395.573685 346.083529,392.068796 L247.534301,292.488718 L247.534301,434.970885 C247.534301,445.316867 255.93104,453.713606 266.295765,453.713606 L266.295765,453.713606 Z M472.446956,491.199049 L247.534301,491.199049 C226.842337,491.199049 210.048858,474.424313 210.048858,453.713606 L210.048858,266.286394 C210.048858,245.575687 226.842337,228.800951 247.534301,228.800951 L472.446956,228.800951 C493.157663,228.800951 509.951142,245.575687 509.951142,266.286394 L509.951142,453.713606 C509.951142,474.424313 493.157663,491.199049 472.446956,491.199049 L472.446956,491.199049 Z" id="Email-Icon" fill="#FFFFFF"></path>
        </g>
    </g>
</svg>